<?xml version="1.0" standalone="no"?>
<!DOCTYPE svg PUBLIC "-//W3C//DTD SVG 20010904//EN"
 "http://www.w3.org/TR/2001/REC-SVG-20010904/DTD/svg10.dtd">
<svg version="1.0" xmlns="http://www.w3.org/2000/svg"
 width="300.000000pt" height="300.000000pt" viewBox="0 0 300.000000 300.000000"
 preserveAspectRatio="xMidYMid meet">
<metadata>
Created by potrace 1.16, written by Peter Selinger 2001-2019
</metadata>
<g transform="translate(0.000000,300.000000) scale(0.100000,-0.100000)"
fill="#000000" stroke="none">
<path d="M0 1500 l0 -1500 1500 0 1500 0 0 1500 0 1500 -1500 0 -1500 0 0
-1500z m1450 1191 c0 -5 12 -14 28 -19 17 -7 21 -11 10 -11 -10 -1 -18 -5 -18
-10 0 -4 -26 -16 -57 -26 -72 -22 -87 -33 -72 -51 6 -8 16 -11 22 -7 12 7 65
11 212 15 84 3 103 0 120 -15 21 -19 117 -67 134 -67 5 0 18 -11 29 -25 11
-14 25 -25 30 -25 6 0 20 -13 31 -29 12 -16 33 -32 48 -36 15 -3 52 -27 84
-53 31 -26 87 -65 124 -87 101 -61 103 -63 107 -127 3 -32 1 -58 -4 -58 -4 0
-8 4 -8 9 0 5 -9 13 -20 16 -11 3 -20 12 -20 19 0 15 -82 72 -137 95 -12 6
-42 25 -66 44 -25 19 -56 37 -70 41 -14 3 -29 15 -32 26 -3 11 -13 20 -21 20
-8 0 -14 5 -14 11 0 5 -17 17 -37 26 -21 8 -41 20 -45 26 -10 16 -66 12 -86
-6 -11 -10 -45 -20 -83 -23 -35 -4 -67 -12 -71 -18 -4 -6 -4 -52 -1 -103 5
-74 3 -101 -11 -137 -17 -45 -60 -84 -71 -66 -3 6 -15 10 -27 10 -17 0 -19 4
-14 28 4 15 12 64 18 110 11 79 10 83 -10 105 -12 13 -22 32 -22 43 0 26 -23
88 -39 108 -23 28 -65 19 -123 -27 -29 -23 -71 -54 -93 -68 -116 -76 -155 -99
-205 -123 -103 -48 -133 -96 -129 -208 3 -74 2 -82 -20 -99 -31 -25 -66 -26
-56 -1 44 105 38 272 -10 272 -8 0 -15 4 -15 10 0 16 42 37 100 50 30 7 62 19
70 26 8 7 24 21 35 31 26 23 102 73 112 73 19 1 93 80 93 99 0 11 -4 21 -10
21 -21 0 -10 50 15 66 14 9 25 25 25 35 0 25 36 42 75 35 51 -10 115 3 115 23
0 9 5 22 12 29 14 14 68 16 68 3z m-190 -562 c28 2 52 -5 84 -24 51 -30 57
-42 24 -47 -21 -3 -23 -9 -23 -58 l0 -55 -52 -10 c-32 -6 -68 -23 -94 -42 -24
-18 -49 -33 -56 -33 -7 0 -13 -9 -13 -20 0 -23 20 -25 89 -9 69 16 75 7 39
-51 -17 -28 -36 -54 -42 -57 -6 -4 -45 -8 -88 -10 -69 -4 -78 -2 -88 17 -9 16
-21 20 -63 20 -29 0 -58 -5 -65 -12 -7 -7 -12 -9 -12 -5 0 4 -9 3 -20 -3 -17
-9 -20 -8 -20 9 0 10 7 32 15 47 12 23 23 30 57 34 40 5 43 7 44 38 1 21 -4
36 -12 39 -18 7 -18 23 1 23 7 0 18 -8 24 -17 8 -14 12 -15 22 -6 20 20 -4 60
-40 68 -55 12 -75 65 -41 108 25 31 33 33 54 11 18 -18 38 -10 29 11 -11 31
15 43 87 42 45 -1 73 2 82 11 10 10 15 10 26 -5 9 -12 23 -16 52 -14z m775
-59 c21 0 41 -33 55 -88 7 -29 5 -34 -15 -42 -32 -12 -37 -24 -23 -55 11 -24
10 -29 -7 -41 -10 -8 -15 -17 -10 -21 4 -5 10 -2 12 4 3 10 10 10 25 2 11 -6
31 -8 44 -5 14 4 37 0 53 -8 23 -12 27 -20 23 -41 -3 -16 2 -33 12 -44 15 -17
15 -20 -5 -45 -20 -26 -24 -26 -105 -23 -49 2 -88 -1 -94 -7 -8 -8 -13 -7 -19
2 -5 9 -15 10 -38 1 -32 -11 -73 1 -73 20 0 5 -9 11 -20 14 -11 3 -24 17 -30
32 -6 15 -16 25 -23 22 -19 -6 -21 -37 -3 -56 9 -10 13 -21 9 -24 -3 -4 -1 -7
5 -7 7 0 24 -19 39 -42 15 -24 32 -46 37 -49 19 -14 212 -18 241 -5 11 5 26 8
32 7 7 -1 26 5 42 14 32 16 71 20 71 8 0 -5 -13 -16 -28 -27 -32 -21 -57 -69
-48 -91 3 -9 19 -15 38 -16 73 -1 78 -8 81 -137 1 -34 7 -66 12 -70 6 -4 15
-17 22 -28 10 -18 9 -25 -8 -40 -24 -21 -24 -42 0 -73 l19 -24 -49 -51 c-27
-28 -49 -54 -49 -58 0 -4 -19 -5 -42 -2 -30 4 -49 1 -63 -9 -18 -14 -18 -17
-5 -43 8 -15 14 -35 12 -45 -2 -9 2 -20 8 -24 15 -9 12 -61 -5 -75 -22 -18
-62 21 -77 74 -6 23 -22 50 -34 61 -33 30 -64 126 -81 260 -18 129 -23 271
-10 295 11 23 -38 69 -89 82 -34 9 -46 18 -51 37 -7 29 -32 55 -71 75 -49 25
-91 66 -85 81 3 8 1 15 -5 15 -14 0 -27 81 -15 89 6 3 13 26 16 50 4 35 1 50
-14 69 -20 26 -25 67 -9 77 5 3 15 -3 22 -15 7 -11 18 -20 25 -20 7 0 13 -4
13 -10 0 -17 20 -11 56 17 19 14 33 32 30 39 -7 19 23 26 61 13 25 -8 37 -8
48 1 8 7 14 15 13 18 -2 18 6 18 55 1 28 -10 61 -19 72 -19z m-1185 -462 c59
0 90 -4 107 -15 19 -13 29 -14 49 -4 41 18 57 14 49 -11 -3 -13 -13 -50 -20
-84 -8 -34 -21 -81 -29 -105 -10 -28 -12 -47 -6 -53 6 -6 10 -31 10 -57 0 -42
-4 -51 -51 -98 l-51 -52 6 -68 c6 -63 5 -70 -18 -98 -19 -23 -32 -29 -51 -25
-17 3 -25 0 -25 -9 0 -8 -9 -25 -19 -38 -13 -17 -24 -22 -37 -17 -11 4 -19 6
-19 5 0 -13 -50 43 -60 69 -8 17 -18 32 -22 32 -4 0 -14 4 -22 9 -11 7 -10 13
8 32 44 47 18 94 -53 94 -39 0 -41 2 -42 30 0 17 -9 60 -19 97 -18 63 -18 68
-2 86 9 10 17 25 17 33 0 8 7 27 15 43 9 16 13 37 10 48 -4 10 -2 18 4 18 6 0
11 11 11 25 0 15 6 25 14 25 8 0 23 14 33 30 9 17 23 30 31 30 7 0 12 7 10 16
-4 23 63 45 78 26 8 -11 34 -14 94 -14z m728 -11 c32 0 34 -2 29 -31 -2 -17
-8 -40 -12 -50 -6 -14 -5 -17 3 -12 8 5 10 2 6 -8 -3 -9 -1 -16 5 -16 15 0 91
-33 91 -40 -1 -21 -44 -42 -155 -75 -33 -10 -64 -22 -69 -27 -17 -14 -37 -9
-66 16 -16 13 -46 26 -68 30 -50 7 -61 23 -33 42 12 8 21 23 21 33 0 27 28 59
38 44 6 -10 17 -4 41 21 28 29 31 37 22 54 -16 31 10 42 68 29 25 -6 61 -10
79 -10z m-262 -365 c10 -10 27 -21 36 -24 23 -9 32 -66 18 -116 -9 -34 -15
-42 -34 -42 -13 0 -29 7 -36 15 -7 8 -19 15 -26 15 -18 0 -44 52 -44 86 0 17
11 39 27 56 32 33 33 33 59 10z m418 -11 c24 -25 26 -32 16 -52 -6 -13 -27
-37 -45 -54 l-33 -30 -6 -123 c-7 -122 -7 -122 19 -148 34 -34 29 -62 -14 -91
-70 -47 -125 -20 -160 77 -16 44 -27 60 -41 60 -14 0 -20 10 -25 40 -4 22 -15
46 -26 53 -10 8 -25 30 -33 49 -13 31 -13 38 -1 54 8 11 15 29 15 41 0 32 53
58 89 44 26 -11 71 -12 71 -1 0 3 14 11 31 19 26 12 32 11 49 -4 18 -16 20
-16 26 -1 3 9 3 31 0 49 -10 56 23 65 68 18z"/>
</g>
</svg>
